<svg version="1.2" xmlns="http://www.w3.org/2000/svg" viewBox="0 0 800 400" width="300" height="300"><style>.a{fill:#050406}.b{fill:#fefefe}.c{fill:#da2c2c}.d{fill:#c82c35}.e{fill:#050505}.f{fill:#3d0f10}.g{fill:#821b20}.h{fill:#e4e4e4}.i{fill:#cacbca}.j{fill:#dfe2e2}.k{fill:#fbfdfe}.l{fill:#c8c8c9}.m{fill:#cac9c9}.n{fill:#d6d6d5}.o{fill:#cfcccc}.p{fill:#c6c5c5}.q{fill:#cfd0cf}.r{fill:#d6d6d7}.s{fill:#c1c2c2}.t{fill:#bdbbbc}.u{fill:#f5f6f6}.v{fill:#c3c3c3}.w{fill:#e2e3e2}.x{fill:#d3d2d1}.y{fill:#f2f3f3}.z{fill:#c6c4c4}.A{fill:#efefef}.B{fill:#e9ebeb}</style><path class="a" d="m212.7 200.7c0 0 0.2-0.3 0.2-0.2 0.3 0.7 5.1-8.6 5.2-8.8 0.5-2.2 1.1-1.6 0.8-4.2l-4.4 0.8-4.3 1.4-1.1-2c-0.2-0.5-0.4-1.2-0.7-2-0.5-1.3-1.1-2.6-1-4.2 5.3-0.6 7 0.7 10.4 2.2 2.4 1.1 1.9-0.5 5.2 0 3.7 0.6 2.7-1 5.2-1 1.8-1.8 5.5-1.6 7.7-1.4 0.4 2.4-1.3 7.1-2.6 8.5-1.9-0.2-2.5-0.4-3.4-1.5l-0.9 0.2-4.6-0.9 0.7 3.5c0.2 1.8 2.1 5.6 3.6 7.4 1.6 2.9 7.8 7 12.4 8.4 5.5 1.7 13.6 1.5 19.2 0.1 22.9-5.7 19.4-18.9 22.1-20.1l30.8-5.7-1.9-6.6c-3 0.1-6.8 2-9.6 1.5-0.2-2.1 1.1-6.2 1.3-8.7 0.2-3.3 0.5-6.4 0.7-9.7 0.5-14.1-0.8-11-1.1-20 3.1 0 3-0.5 4.6 1.3 3.8 4.4 10.1 1.6 11.2-2 2.3-7.2-8-11.6-12.2-4.7-11.1 0.8-10.1-4.5-16.2-1.3-3.2 1.6-6.8 8-6.7 12.1l0.2 1.1h3c0.6-1.3 3.2-12.8 8.3-10.5-1.2 1.9-2.3 1.4-3.2 4 6.6 0 7.1-1.2 7.9 4.5 0.6 4 0.7 12 0.5 15.9-0.4 5.2-1.1 14.7-2.5 19.1l-14.8 2.3c-0.8-3.3 0.5-7.1-0.2-10.4-0.3-1.3-0.2-2-0.5-3 0 0-1.1-1-0.3-2.2-0.8 1.4 0.1 0.7-2 1.4-1.9 0.8-1.7-0.6-4.2-0.8-3.2-0.3-3.2 0.9-5.5 1.1-6-7.5-10.8-2-13.1-1.1-9.1-7.5-12.3 1.9-13.4 2.9-2.7-0.9-4.4-1.9-7.6-0.5-2.4 1.1-3.1 2.8-4 5.3-10.3-0.6-7 2.4-10.3 4.1-4.9-5.1-1.9-3.9-10.2-4.2-0.7-2.7-1.5-4.1-4-5.3-3.4-1.6-5.2 0.3-7.8 0.4-1.6-2.7-1.8-4.4-5.2-5.1-4.1-0.9-5.6 1.2-8.2 2.3-2.2-1.1-2.8-2.7-6.8-2.5-3 0-4.4 2.3-5.9 3.8-1.6-0.1-6.4-2.7-8 0-1.2 1.1-3 1.1-4.4 0.4v2.5c-0.5 2.8 0.5 8.9-0.2 10.6-2.1 0.4-12.8-1.5-15.2-2.1-2.9-10.3-3.4-28.8-0.9-39.3l7-0.2c-0.6-2.1-2.4-2.4-3.1-3.9 5.8-2 8.2 11 9.4 16 0.1 0 0.2 0.1 0.3 0.2 0.1 0 0.2 0.1 0.3 0.1l1.8 0.9-0.2-7c0.2-7.4-7.6-17.3-14.6-12.7-2.7 1.8-4.5 1.4-8.4 1.2-3.9-6.3-13.7-3.7-12.4 4.1 0.4 2.8 3.3 5 6.9 4.7 5.5-0.3 2.4-3.6 8.9-3.4 0.1 3.2-0.9 5.9-1 9.4-0.2 5.3 0.4 19.5 1.3 24.5 0.3 1.7 0.8 2.8 0.8 4.4-2.9 0.3-5.3-1.3-8.1-1l-0.9 6.7 28.8 5.1c1.6 6.2 3.2 9.7 6.7 13.1 2.7 2.5 8.5 5.7 13.3 6.6 12.8 2.4 21.1 2.6 31.1-5.9z"/><path class="b" d="m161.1 168.6c-1.3-1.7-1.4-7.1-1.6-9.2-0.3-3.4-1.3-6.2-1.4-9.7-1.2-5-3.6-18-9.4-16 0.7 1.5 2.5 1.8 3.1 3.9l-7 0.2c-2.5 10.5-2 29 0.9 39.3 2.4 0.6 13.1 2.5 15.2 2.1 0.7-1.7-0.3-7.8 0.2-10.6z"/><path class="b" d="m286.5 144.2c-1.8 8.5-2.4 18.5-3.5 23.6l-0.3 1c-0.1-0.1-0.1 0.2-0.2 0.3 0.7 3.3-0.6 7.1 0.2 10.4l14.8-2.3c1.4-4.4 2.1-13.9 2.5-19.1 0.2-3.9 0.1-11.9-0.5-15.9-0.8-5.7-1.3-4.5-7.9-4.5 0.9-2.6 2-2.1 3.2-4-5.1-2.3-7.7 9.2-8.3 10.5z"/><path class="c" d="m222.4 124.3c-2.3-1.9-4-5.5-8.3-4.9-3.9 0.5-6 3.7-5.7 8 0.3 5.5 11.8 12.9 14.4 12.7 1.7-0.2 13.9-6.7 14.1-13.2 0.2-4.1-2.2-7.5-6.1-7.5-4.9 0.1-5.7 3.9-8.4 4.9z"/><path class="a" d="m207.6 100.5c6.7 2.4 2.4-3.7 7.9-8.8 7.6-7.1 21.2 0.8 16.6 10.8-4 8.9-12 2.1-12.1 10.1-0.1 6.5-0.6 4.9 2.7 7.9 3.4-2.4 2.2-3 2.6-7.6 5.2-1.6 10.1-3.3 12.3-9.9 2.5-7.3-1.6-13.4-5.6-16-11.1-7.5-27.7 1.4-24.4 13.5z"/><path class="a" d="m212.7 137.8c-1.6-2.1-3.7-2.7-4.9-5.4h-49.5c1.7 7.1 5.1 5.4 9.3 5.4 13.7 0 32.6 0.5 45.1 0z"/><path class="a" d="m232.6 137.8h49.6l3.1-5.3c-4.3-0.5-39.5-0.2-45.6-0.1-2.6 0-2.6 0.9-4 2.4-1.1 1.2-2.2 1.8-3.1 3z"/><path class="d" d="m214.5 188.3l0.8-1.1-2.8-0.4c1.1-1 2.7-1.2 4.5-1.1 3.9 0.3 3.6 4 1.1 6-0.1 0.2-4.9 9.5-5.2 8.8 0-0.1-0.2 0.2-0.2 0.2 1.2 0.7 0 0.2-0.6 3.8 1.9 1 4.7 1.6 7 1.9l1.9-14.9c2.4-0.3 2-1.1 2.5 5.4l1.1 7.6c1-3.8-0.3-7.9-0.4-11.8l3 7.3c0 0.1 0.5 1.2 0.5 1.2 1 1.5-1 0.6 1.4 1.2-0.2-0.8-0.7-1.8-0.8-2.3-0.7-2.8-0.6-0.8 0.4-1.6-1.5-1.8-3.4-5.6-3.6-7.4l-1-1.1q-0.1-0.1-0.1-0.3c-0.2-0.3-0.3-1-0.3-1.3-0.1-4.3 6.2-2.5 7.4-1.5l-3.3 0.3c0.1 0 0.2 0.1 0.3 0.2 0 0 0.2 0.2 0.2 0.2 0.1 0.1 0.2 0.2 0.3 0.3l0.4 0.6 0.9-0.2 3.5 0.8c0.6-2 1.8-5.1 1.9-7.2-3.2-0.2-4.4 0.6-7.1 0.8-2.5 0-1.5 1.6-5.2 1-3.3-0.5-2.8 1.1-5.2 0-3.4-1.5-5.1-2.8-10.4-2.2-0.1 1.6 0.5 2.9 1 4.2 0.3 0.8 0.5 1.5 0.7 2l1.1 2z"/><path class="c" d="m224.6 204.5c-0.5 3.1 0.8 8.1 1 11.5l8.5-1.5c0-1-4.1-11.1-5-12.1-2.4-0.6-0.4 0.3-1.4-1.2 0 0-0.5-1.1-0.5-1.2l-3-7.3c0.1 3.9 1.4 8 0.4 11.8z"/><path class="e" d="m279.7 165.3c2.1-0.7 1.2 0 2-1.4-0.8 1.2 0.3 2.2 0.3 2.2 0.3 1 0.2 1.7 0.5 3 0.1-0.1 0.1-0.4 0.2-0.3l0.3-1c1.1-5.1 1.7-15.1 3.5-23.6h-3l-0.2-1.1c-0.8 0.9-0.5 0.8-0.8 2.3l-1.4 8.1c-0.6 4-1.4 7.6-1.4 11.8z"/><path class="e" d="m158.1 149.7c0.1 3.5 1.1 6.3 1.4 9.7 0.2 2.1 0.3 7.5 1.6 9.2v-2.5c1.4 0.7 3.2 0.7 4.4-0.4l-1.6 0.1c-0.4-4.5-1.7-19.7-3.6-21.9l0.2 7-1.8-0.9c-0.1 0-0.2-0.1-0.3-0.1-0.1-0.1-0.2-0.2-0.3-0.2z"/><path class="b" d="m197.2 170.4c0.9-8.7-6.5-7.1-8.6-5.2-1.6 1.5-2.7 4 0.9 4.4 2.7 0.3 4.9 0.8 7.7 0.8z"/><path class="b" d="m174.6 169.7l10.4-0.6c0-3.8-1.1-5.8-5.2-5.6-3.7 0.3-5 2.5-5.2 6.2z"/><path class="b" d="m249.3 164.3c-2.2 0.6-3.9 2.2-3.4 4.8 0.4 2.1 1.4 1.1 6.6 0.6 2.8-0.2 5.1-0.4 2.9-3.7-1.2-1.6-3.5-2.4-6.1-1.7z"/><path class="b" d="m258.5 169.1l9.8 0.6c0.4-3.6-1.3-5.7-4.6-5.7-3.5-0.1-5.3 1.5-5.2 5.1z"/><path class="b" d="m270.6 169.9c1 0.9 6.3 2.7 7.8 2.5 2.2-7.2-6.9-8-7.8-2.5z"/><path class="b" d="m165 172.5c2 0 2.4-0.5 4-1.1l2.9-1c0.6-0.2 0.6-0.2 0.9-0.5-1.2-5.7-10.1-4.5-7.8 2.6z"/><path class="b" d="m199.9 170.8c0.9 0.7 8.4 2.9 9.2 2.7l0.1-1.7c0-0.1-0.6-1.4-0.7-1.5-2.2-3.2-7.3-2.5-8.6 0.5z"/><path class="b" d="m234.3 173.6l9.1-2.4c-0.6-4.5-10-3.9-9.1 2.4z"/><path class="b" d="m212 174.6c0.4 1.2 2.5 2 3.5 2.7 1.8 1.1 2.3 2.5 4.2 2.2 0.7-5.2-6.2-6.8-7.7-4.9z"/><path class="b" d="m224.1 179.6c1.4-0.2 2.3-1.4 3.6-2.3 0.6-0.3 1.2-0.7 1.8-1 1.6-0.9 1.3-0.3 1.8-1.8-4.6-1.7-9.2 1.6-7.2 5.1z"/><path class="f" d="m214.5 188.3l4.4-0.8c0.3 2.6-0.3 2-0.8 4.2 2.5-2 2.8-5.7-1.1-6-1.8-0.1-3.4 0.1-4.5 1.1l2.8 0.4z"/><path class="f" d="m225.1 191.1l-0.7-3.5 4.6 0.9-0.4-0.6c-0.1-0.1-0.2-0.2-0.3-0.3 0 0-0.2-0.2-0.2-0.2-0.1-0.1-0.2-0.2-0.3-0.2l3.3-0.3c-1.2-1-7.5-2.8-7.4 1.5 0 0.3 0.1 1 0.3 1.3q0 0.2 0.1 0.3z"/><path class="g" d="m228.2 182.7c2.7-0.2 3.9-1 7.1-0.8-0.1 2.1-1.3 5.2-1.9 7.2l-3.5-0.8c0.9 1.1 1.5 1.3 3.4 1.5 1.3-1.4 3-6.1 2.6-8.5-2.2-0.2-5.9-0.4-7.7 1.4z"/><path class="h" d="m126.6 270.5c-0.7-6.1 0.7-20.4 1.1-27.7 0.2-3.5-0.7-6.7 3.7-5.5 1.1 2.4 0 12.7-0.2 16.2 2.6-1.1 4.6-3.5 8.9-2.3 7.1 2 3.8 16.4-9.4 17.3-0.5 2.7-0.7 3.1-3.6 2.5 1 2.2 3.9 1.1 5.2 0.3 1.9-1.3 2.1-1.3 4.6-2.1 1.9-0.6 2.7-1 4.1-2.3l2.3-2.2c1.7-1.3 0.2 0.7 0.9-0.8 0.1 0.1 0.1 0.2 0.2 0.4l1 1.2c-1.4-5.4 0.3-6.2 3.9-8.2 1.4-2.2 0.5-0.4 0-1.1l-0.4-0.9c-0.1-0.4-0.8-1.6-1.3-2.2l-0.3 1.2c-0.4-2.3-0.8-1.9-1.1-2l-3.7-2.3c-3.6-1.8-4.6-0.2-7.9-0.6l-0.2-12c-5.7-4.3-7.9-1-8.1 5.6-3.9 0.1-6.3-5.1-12.3-1.5-0.5 0.3-1.2 0.9-1.6 1.2l-1.6 1.2c0 0-0.1 0.1-0.2 0.1l-3.5-4.4c-1.5-1.5-2.8-1.9-4.7-3.1-3.5-2.4-9.1-1.7-13.8-1.3-5.3 0.4-10.3 5.1-10.7 8.8-0.3 1.7 0.5 3.4 2.9 3.9 3.1 0.6 2.5 2.2 2.2 4.8-0.1 1.3-0.1 2.6-0.1 3.8 0 2.8 0 5.1 0.2 7.5 0.3 2.1 0.1 5.8 1.2 6.9l0.4 0.2c0 0.1 0.1 0.2 0.1 0.2l0.4 0.4c0.4 0.3 1.1 1.4 3.1 1.9 2.4 0.6 4.2 0.3 6.1-0.8l4-2.6c0.3-0.2 0.7-0.4 0.8-0.5 1.5-1 7-7.8 7.4-8.1 1.2 1.6 2.3 5.6 2.4 5.7 2 2.4 3.1 4.8 6.6 5 3.4 0.2 4.7-0.3 6.1-1.7 0 0 0.1-0.1 0.1-0.1l0.6-0.4c0.1-0.1 0.2-0.1 0.2-0.1 1.8-1.4 0.2-0.7 1.7-1.4 1.3 0.6 0.9-0.1 1.3 1.6l0.2-0.8c0 2.5-0.1 0.2 0.8 1.1z"/><path class="a" d="m80.4 246c3.5 1.5 3-0.5 5.7-3.4 0.4 6.2-3.3 23.3 0.8 28.2 2.9 3.4 9.5-1.1 11.1-2.6 2.8-2.5 5.2-5.3 7.2-8.9 10.2-18.6-6.1-25.2-17.7-21.5-3.2 1-8.1 4.4-7.1 8.2z"/><path class="a" d="m301.7 273.3c2 0 1.7 0 2.9-0.9l-0.3-8 3.2-0.4c0.4 0.5 0.7 0.9 1 1.2 0.8 1.1 0.5 0.5 1.1 1.7 0.3 0.1 0.3 0 1 0.6 0.8 0.8 0.4 0.4 0.9 1.3 1.1 0.3 1.1 0.5 2.3 1.4 2.7 1.8 5.3 2.6 8.6 3.2 3.8 0.2 6.7 0.1 9.6-1.8 0-0.2-0.2-0.4-0.1-0.7q-0.1-0.2-0.1-0.5l-0.8-1q-0.2-0.1-0.3-0.1c-0.4-0.2-1-0.3-1.5-0.4q-0.7 0.3-1.5 0.3c-2.2 2.1-7.7 0.2-9.7-0.8-2.7-1.4-5.1-3.4-6.3-5.6 1.7-1.5 3.3-1.9 5.2-3.9 1.5-1.5 2.8-3.7 2.9-6.7 0-6-4.2-7.7-9.1-9.1-9.1-0.8-8.1 1-9.4 11.4-0.6 4-2.3 16.2 0.4 18.8z"/><path class="a" d="m265.1 270.8c1.7 0.3 6.1 0.5 9.1 0 0.5-0.4 1.4-0.9 1.6-0.9 0.7-0.7 0.6-0.5 0.7-1.4l-0.6-0.7-0.9-0.2q-0.4-0.2-0.5-0.5-0.3 0-0.5 0.1c-5.3 0.7-11.9 1.7-12.8-5.7-0.4-3.3-0.2-8.6 0.3-11.8l6.2-0.4c0.9 4.6-1.1 12 1.9 16.1 1.7 2.3 4.1 0.9 5.6-0.9 1.6-1.9 1.7-2.9 2.5-4.5 0.4-0.6 0.2-0.3 0.5-0.7l0.5-0.6c0 2-0.9 9.2 0.2 10.4 0.9 0.9 3 0.8 3.5-0.9 0.2-0.8 0.2-3.9 0.3-5 0.3-5.7 1.7-14 0.4-19.3-4.8-2.5-5.3 6.2-7.2 9.6l-2.3 6.7c-0.7 1.4-0.4 1-1.5 1.6-0.6-4.5 1.1-12.7-0.6-16.2l-4.3-0.2-0.6 0.3c-1.8 0.6 1.6-0.2-0.6 0.2l-4.1 0.2 0.1-4.7c-4.2-1.6-3.7 1.1-4.4 4.8-1.8 0.4-1.7 0.3-3 1.2l0.1 1.6c1.3 1 1.3 0.6 2.6 1.3-0.5 9.6-1.8 18.3 7.8 20.5z"/><path class="a" d="m338.6 245.1c0.1 5-0.2 10-0.2 14.9-0.1 1.7 0 13-0.9 14.4l0.4 2.8c2 0.7 3.7 0.7 3.8-1.9l0.6-8.6c6.3 0.6 8.2-2 10.3-6.1 2.4-4.8 3-8.7 1-13.7-2.2-0.7-1.5-0.6-4.6-1.1-0.9 0.9-1.7 0.9-3.6 2.9-1.2 1.2-1.5 2.1-2.7 3.1l-0.1-7.5c-1.8-1.5-3.4-1-4 0.8z"/><path fill-rule="evenodd" class="i" d="m287.7 243.4c2 3.3 1.3 8.2 0.8 12.7-0.5 5.7 0.5 13-3.1 14.3-1.4 0.6-1 0.2-2.4 0.4-1.6 0.2-2.6 0.6-3.4 0.9 0-0.3 0-0.6-0.4-0.9-0.1-0.2-0.1-0.3-0.3-0.5q-0.1-0.1-0.2-0.3c0-0.2-0.1-0.4-0.2-0.6 0-0.2-0.1-0.6-0.3-0.8-0.1-0.2 0.1-0.5-0.2-0.9l-0.1-0.1c0.1-0.3-0.3-2.2-0.3-2.7-0.2-0.9-1.3-0.9-1.6-0.3-0.3 0.1-0.5 0.5-0.5 0.8-0.3 0-0.6 0.3-0.7 0.6-0.4 0.2-0.5 0.7-0.3 1.1q-0.3 0-0.5 0.1c-5.3 0.7-11.9 1.7-12.8-5.7-0.4-3.3-0.2-8.6 0.3-11.8l6.2-0.4c0.9 4.6-1.1 12 1.9 16.1 1.7 2.3 4.1 0.9 5.6-0.9 1.6-1.9 1.7-2.9 2.5-4.5 0.4-0.6 0.2-0.3 0.5-0.7l0.5-0.6c0 2-0.9 9.2 0.2 10.4 0.9 0.9 3 0.8 3.5-0.9 0.2-0.8 0.2-3.9 0.3-5 0.3-5.7 1.7-14 0.4-19.3 1.6-1 2.4-0.7 4.6-0.5zm-13.5 27.4q-0.2 0.2-0.2 0.3c-0.5-0.1-0.9 0.2-1 0.7-0.5 0-0.8 0.3-0.8 0.8-3-0.1-6.1-0.6-7.1-1.8 1.7 0.3 6.1 0.5 9.1 0z"/><path class="a" d="m126.6 270.5l0.5 0.5c2.9 0.6 3.1 0.2 3.6-2.5 13.2-0.9 16.5-15.3 9.4-17.3-4.3-1.2-6.3 1.2-8.9 2.3 0.2-3.5 1.3-13.8 0.2-16.2-4.4-1.2-3.5 2-3.7 5.5-0.4 7.3-1.8 21.6-1.1 27.7z"/><path class="j" d="m89.8 268.4c10.1-0.3 25.8-31.4 1-27.7-0.7 3.9-2.6 23.1-1.4 26.7 0.3 1.1 0.1 0.4 0.4 1z"/><path class="a" d="m209.1 269.8c2.1-1.1 2.7-1.9 4-3.6 0.7-1 2.5-3.5 3-4.4 0.4 3.1-0.5 6.1 0.2 9.4 0.5 0.1 0.2-0.5 0.4 0.2 4.4 0.4 3.3-2.2 3.5-6.3 0.2-2.9 0.3-6 0.4-9 0.1-3.4 1.2-15.7-0.3-17.9l-2.8 0.2c-0.8 2.1-0.8 10.2-0.9 13-6.9-0.4-9.1 2-11.3 7-2 4.4-2.6 11.8 3.8 11.4z"/><path class="a" d="m147.6 253.1c0.5 0.6 1.2 1.8 1.3 2.2h2.5c1.8-2.3-0.5-3.7 0.7-7 0.9-2.6 3.1-3.9 4.8-1.4 0.7 2.2 1.3 3.4 0.9 5.9 0.7 1 0.4 3.3 0.5 4.9-3 0.2-4.8-1-9-0.4-3.6 2-5.3 2.8-3.9 8.2 1.5 0.8 1.6 2.3 5.1 2.8 3.1 0.4 4.7-0.3 7-1.2 0.1 1.3 0.3 2.2 0.6 2.7 4.6 0.8 3.7-1.9 4-6 0.2-3.4 0.3-6.7 0.2-10-0.3-6.6-1.5-12.1-8.7-11.8-5.6 2.1-5.4 4.6-6 11.1z"/><path class="a" d="m113 258.5c3.1-1.5 8.8-1.5 11.7-3.1 2-7.9-4.1-16.8-10.8-12-4.6 3.3-6.5 13.4-4.4 20.9 2.9 10.8 13.9 6.5 13.1-0.3-0.2-1.6-1.7-3.5-3.6-2.2-1.8 1.2 0.6 3.9-1.7 5.1-3.6 1.9-4.4-5.5-4.3-8.4z"/><path class="a" d="m359.3 247.7c-0.5 3.8-1 7.8 3.4 7.6 1.9-2.4-0.1-2.6 0.4-6.1 0.4-2.2 1.6-3.8 3.9-3.6 2.5 1.9 3.1 8.2 2.5 12.3l-8.6-0.8c-1.4 1.3-2.7 1.1-3.8 2.8-1.3 2.1-1 3.5-0.1 5.6 2.2 2.8 7.6 4 11.5 1.7 1 1.3-0.3 3.8 4.3 2.4 1-4.4 1.9-20.6-1.3-25l-2.2-2.3c-2.6 0-3.9-1-6.7 0.8-1.6 1.2-2.4 2.5-3.3 4.6z"/><path class="a" d="m225.8 245.6c-3.1 7-4 12.6-1.5 20.8 1.1 2.5 1.5 2.4 3.7 4.1 5.5 0.8 9.8-1.8 8.4-7.6-0.5-0.7-1.4-2.1-3.1-1.1-1.5 0.9-0.6 2.1-0.8 3.9-3.6 5.5-5.8-3.6-5.4-7.4 2.6-0.7 10.3-1.7 11.7-3.3 1-1.7 0.9-8.5-3.5-11.6l-1.4-1.1-1.3-0.1c-3.7-0.1-5.1 1.3-6.8 3.4z"/><path class="a" d="m324.3 245.8c-1.2 2.1-2.6 2.5-3.5 6.4-0.7 3.2-0.5 5.9 0.9 8.4 0.7 1.4 2 2.7 3.6 3.2 2.2 0.9 4.2 0.2 6.3 0.3l0.5-0.5c2.8-2.3 4.7-3.8 5.1-9 0.1-2.9-0.6-6.6-2.5-8.5-0.8-0.7-1.5-0.9-2.3-1.8-1.4 0.1-2.4-0.4-4.3 0-1.6 0.3-2.7 1.2-3.8 1.5z"/><path class="k" d="m93 242c-0.7 1.3-1.1 1.3-1.4 2.5-0.4 1.7 0 1.9-0.3 3.7-0.3 2-1.4 16.1-0.2 17.2 2 1.9 6.4-4.2 7.2-5.5 0.7-1.3 1.1-1.7 1.9-2.8 1.4-2 2.2-4.2 2.3-7.2l-1-5c-2-2.6-4.1-3.1-8.5-2.9z"/><path class="l" d="m369.3 242.3l2.2 2.3c3.2 4.4 2.3 20.6 1.3 25 0.7-0.3 1.1 0.2 1.3 0.4 8 5.5 6.6-10.2 6.6-14.7-0.1-3.8-0.2-7.6-2.8-10.4-2.4-2.7-2.5-3.4-6.6-3.2-2.4 0.2 0.1 0.1-2 0.6z"/><path class="a" d="m174.2 252.9c-1.9 5-1.5 5.7 0.3 10.4 0.9 0.7 1.9 2.1 3.8 2.3 8 2.3 11.1-6.5 7.9-12.3-1.5-2.8-2.6-2.4-4.2-3.9-1.8 0.5-2.9-0.1-4.9 0.8-1.9 0.9-1.8 1.8-2.9 2.7z"/><path class="a" d="m165.3 250.5c0.3 0.5 0-0.4 0.4 1 0.5 2 0.3 13.8 0.2 15.6-0.1 2.4-0.2 5.1-1.1 7.2-0.7 2-2.4 3.9-4.5 2.2-1.2-2.6 3.7-6.4-2.3-5.9-1.1 1.3-2.5 2.6-2.2 5.5 0.4 2.6 1.8 3 3.3 4.3 13.2 2.1 11.1-14.6 10.8-25.8-0.1-5.9 0.6-9.1-2.8-9.2-2.9 0.9-0.9 2.3-1.8 5.1z"/><path class="m" d="m353.6 246.9c2 5 1.4 8.9-1 13.7-2.1 4.1-4 6.7-10.3 6.1l-0.6 8.6c0.1 0.1 0.2 0.1 0.2 0.3l1.3 2.8c2.4 0.2 2.3 0.4 3.8-0.8 1.4-2.1 0.7-5.4 1.6-7.8l6.2-2.8c1.7-1.1 0.9-1 2.2-1.5-0.9-2.1-1.2-3.5 0.1-5.6 1.1-1.7 2.4-1.5 3.8-2.8l-1.3-0.2c0-0.1 0.2-0.2 0.2-0.3l2.9-1.3c-4.4 0.2-3.9-3.8-3.4-7.6-0.8-0.6-1.2-1.1-2.6-1.4-0.6-0.1-1.2-0.2-1.8 0-1 0.1-0.7 0.1-1.3 0.6z"/><path class="n" d="m170.4 237.9c0.7 3.7-1.5 5.8-5 4.9 0.1 0.1 0.3 0.5 0.4 0.6l1.1 1.7c0 0.1 0.1 0.2 0.2 0.3 3.4 0.1 2.7 3.3 2.8 9.2 0.3 11.2 2.4 27.9-10.8 25.8l0.6 0.5c0.8 0.6-0.2 0.1 0.9 0.6l5.6 0.1c0.2-0.1-0.2-0.4 1.4-1 8.3-3.2 3-13.9 6.9-17.3-1.8-4.7-2.2-5.4-0.3-10.4-2.4-1.4 0.3-2.2-3.3-8.5 1.5-2.5 2.4-1.5 2.3-5.5-1.2-0.9-1.4-0.3-1.9-1.6-0.2 0.2-0.5 0.3-0.9 0.6z"/><path class="n" d="m153.6 242c7.2-0.3 8.4 5.2 8.7 11.8 0.1 3.3 0 6.6-0.2 10-0.3 4.1 0.6 6.8-4 6l-0.1 0.8c6-0.5 1.1 3.3 2.3 5.9 2.1 1.7 3.8-0.2 4.5-2.2 0.9-2.1 1-4.8 1.1-7.2 0.1-1.8 0.3-13.6-0.2-15.6-0.4-1.4-0.1-0.5-0.4-1-0.8 1.9 0.4-1.8-1.2-4.5l-2-2.7c-0.3-0.2-3.3-2.2-3.6-2.2-1.1-0.4-1.3-0.3-2.3-0.1-1.6 0.3-2 0.5-2.6 1z"/><path class="o" d="m310.7 243.1c4.9 1.4 9.1 3.1 9.1 9.1-0.1 3-1.4 5.2-2.9 6.7-1.9 2-3.5 2.4-5.2 3.9 1.2 2.2 3.6 4.2 6.3 5.6 2 1 7.5 2.9 9.7 0.8-2.2-0.9-3.6-0.7-5.8-2.1-6-3.8-0.5-5.3-0.3-6.2 0-0.2 0.1-0.2 0.1-0.3-1.4-2.5-1.6-5.2-0.9-8.4 0.9-3.9 2.3-4.3 3.5-6.4-2.3 0.1-1.1-1-6.3-2.9-1.7-0.6-4.5-1.8-6.4-0.6-0.7 0.4-0.5 0.3-0.9 0.8z"/><path class="m" d="m220.3 238.2c1.5 2.2 0.4 14.5 0.3 17.9-0.1 3-0.2 6.1-0.4 9-0.2 4.1 0.9 6.7-3.5 6.3 0.8 0.9 2.8 0.9 4.1 0.6 1.4-0.3 1.8-1 2.9-1.8 0-0.6 0-1.4 0-2 0.2-2 0.2-1.4 0.6-1.8-2.5-8.2-1.6-13.8 1.5-20.8-0.8-0.8-0.4-0.7-0.6-3.5-0.2-2.6-0.6-2-0.9-4.1-2.3-0.2-2.2-0.9-4 0.2z"/><path fill-rule="evenodd" class="o" d="m336.4 244c1.8 0.1 2 1 2 0.9 0.1-0.1 0.2 0.2 0.2 0.2 0.1 5-0.2 10-0.2 14.9-0.1 1.7 0 13-0.9 14.4l-0.3-1.9q0 0.3-0.1 0.4l0.1-4.6q0-0.3 0-0.6l-0.1-2.2c-0.2-2.5-3.6-3.1-4.7-0.9q-0.3-0.1-0.5-0.1-0.1-0.2-0.3-0.4l0.5-0.5c2.8-2.3 4.7-3.8 5.1-9 0.1-2.9-0.6-6.6-2.5-8.5-0.8-0.7-1.5-0.9-2.3-1.8 1.4-0.3 2.3-0.5 4-0.3zm-4.4 27.6q0.1 0.1 0.1 0.1l-0.2 0.7c-0.3 0-0.6 0.1-0.7 0.4l-3.8 1.7c-0.4 0.2-0.5 0.4-0.5 0.7-1.3-0.1-2.5-0.3-3.1-0.6l-1.4-1.2c3.8 0.2 6.7 0.1 9.6-1.8z"/><path class="h" d="m232.6 242.2l1.3 0.1c3.1 0.3 5.4 1.2 7.3 4.2 1.5 2.5 1.9 6.5 0.5 9.6-1.4 0.4 0.4 0.1-1-0.2-0.5 0.7-0.3 0.7-2.3 1.2-3.5 0.9-1.3-0.2-5.5 1.5-4.2 1.7-1.5 6.5-0.4 7.1 0.2-1.8-0.7-3 0.8-3.9 1.7-1 2.6 0.4 3.1 1.1 5.3-0.8 2.9 5.1 1.4 6.9-1.5 1.7-5.8 1.9-8.8 1.5-0.9 0.8 4.9 3.8 10.2-0.8 2.8-2.5 3.2-6.4 1.6-8.4-2.1-2.7-3.8-2.4 0.8-4.2 5.9-2.3 1.9-18.1-7.3-16.8-2.2 0.3-1.2-0.4-1.7 1.1z"/><path class="l" d="m233.9 242.3l1.4 1.1c4.4 3.1 4.5 9.9 3.5 11.6-1.4 1.6-9.1 2.6-11.7 3.3-0.4 3.8 1.8 12.9 5.4 7.4-1.1-0.6-3.8-5.4 0.4-7.1 4.2-1.7 2-0.6 5.5-1.5 2-0.5 1.8-0.5 2.3-1.2 1.4 0.3-0.4 0.6 1 0.2 1.4-3.1 1-7.1-0.5-9.6-1.9-3-4.2-3.9-7.3-4.2z"/><path class="p" d="m310.6 258.7l-0.4-0.1c0.1-3.9 1.1-5.5 1.2-9.5 0.8-0.5 1-0.7 2-1-1.4-1.8-4.4-1.7-6.5-1.5-0.8 1.8-2.3 12.1-2.1 14.1 1.2-0.1 2-0.3 3.1-0.7 0.3-0.1 1.3-0.4 1.5-0.5 1.3-0.6 0.4-0.1 1.2-0.8z"/><path class="q" d="m362.7 255.3l-2.9 1.3c0 0.1-0.2 0.2-0.2 0.3l1.3 0.2 8.6 0.8c0.6-4.1 0-10.4-2.5-12.3-2.3-0.2-3.5 1.4-3.9 3.6-0.5 3.5 1.5 3.7-0.4 6.1z"/><path class="r" d="m182 249.4c1.6 1.5 2.7 1.1 4.2 3.9 3.2 5.8 0.1 14.6-7.9 12.3l-0.7 1c2.2 0.3 1.7 1.1 3.7 1.1 0.9 0 3.7-0.4 4.6-0.8 1-0.5 2.1-1.5 2.9-2.3 2.1-2 2.5-6.9 1.7-9.3l-1.6-2.7c-0.8-1.4-1.1-1.8-2.6-2.6-1.3-0.8-2.8-1.4-4.3-0.6z"/><path class="s" d="m330.9 259.4c-0.3-0.1-0.7 0.3-1.2-1.5-0.3-1.1-0.3-2.5-0.1-3.6 0.2-1.5 0.4-1.7 1-2.8 0.6-1.3 0.4-1.9 1.5-2-3.5-6.9-10.8 5.4-6.3 10.2 1.2 1.2 3.8 1.9 5.1-0.3z"/><path class="t" d="m342.7 262.4c2.6 1.1 4 1.3 6.3-3.5 1.2-2.3 2.6-6.5 1.8-9.3-3.1 0-8.4 10.4-8.1 12.8z"/><path class="u" d="m327.7 269.2q0.8 0 1.5-0.3-0.4-0.1-0.8-0.2c-1-0.2-0.9-1.6 0.1-1.6-0.2-0.5 0.2-1.1 0.8-1.1 0.4-1 1.5-1.7 2.6-1.5q-0.1-0.2-0.3-0.4c-2.1-0.1-4.1 0.6-6.3-0.3-1.6-0.5-2.9-1.8-3.6-3.2 0 0.1-0.1 0.1-0.1 0.3-0.2 0.9-5.7 2.4 0.3 6.2 2.2 1.4 3.6 1.2 5.8 2.1z"/><path class="v" d="m271.5 245.6c1.7 3.5 0 11.7 0.6 16.2 1.1-0.6 0.8-0.2 1.5-1.6l2.3-6.7c-0.8-0.9 2.1-6-1.2-7.7-1.3-0.7-1.8 0-3.2-0.2z"/><path class="w" d="m113.2 254.4l7.8-1.5c0.7-8-6.4-11.1-7.8 1.5z"/><path class="x" d="m148.9 255.3l0.4 0.9c0.5 0.7 1.4-1.1 0 1.1 4.2-0.6 6 0.6 9 0.4-0.1-1.6 0.2-3.9-0.5-4.9l-0.3 3.7c-3.2-1.5-3.4 1.4-3.2-5.1 0-1.9 0-2.4 1.3-3.3l0.8-0.7c0.1 0 0.2-0.1 0.2-0.2l0.3-0.3c-1.7-2.5-3.9-1.2-4.8 1.4-1.2 3.3 1.1 4.7-0.7 7z"/><path class="y" d="m310.6 258.7c4.1-0.5 6.6-6.7 4.1-9.8-1-1.1-0.3-0.6-1.3-0.8-1 0.3-1.2 0.5-2 1-0.1 4-1.1 5.6-1.2 9.5z"/><path class="z" d="m304.6 272.4c1-0.6 0.6 0.9 0.9-1 0 1.8 0.8 1.4 2.8 1.2 1.7-2.7 0-4.4 1.3-5.7-0.6-1.2-0.3-0.6-1.1-1.7-0.3-0.3-0.6-0.7-1-1.2l-3.2 0.4z"/><path class="z" d="m207.9 266.1c1.9-0.9 3.4-5 7.1-8.9 1.1-1.2 0.5-0.1 1-1.5-4.7-3.8-8.3 5.5-8.1 10.4z"/><path class="z" d="m231.9 253.3c-0.7-1-0.3 0.7-0.5-1.5 0-1.5 0.3-2.2 1.1-3l0.8-0.7 1.3 1c-2.1-6.8-7-2.1-7.3 5.4z"/><path class="n" d="m136.1 262.6l-1.8-0.6c-0.1-2.2 0.2-3.1 1.3-4.3 0.7-0.7 1.7-1.7 2.8-0.8 0.1 0 0.1 0.2 0.1 0.2 0.6 1 0.2 0.2 0 0.2 0.9-2-0.1-0.3 1.2-1-0.9-4.2-7.8-1.2-8.6 8.6 1.3-0.2 2.8-0.4 3.9-1.2 1.1-0.7 0.6-0.4 1.1-1.1z"/><path class="x" d="m209.1 269.8c-2.2 3 5.3 0.6 6.4 0.2 0 2.8-0.2 0.3 0.8 1.2-0.7-3.3 0.2-6.3-0.2-9.4-0.5 0.9-2.3 3.4-3 4.4-1.3 1.7-1.9 2.5-4 3.6z"/><path class="m" d="m228 270.5c0 1-0.2 0.6 1 0.8 3 0.4 7.3 0.2 8.8-1.5 1.5-1.8 3.9-7.7-1.4-6.9 1.4 5.8-2.9 8.4-8.4 7.6z"/><path class="l" d="m368.9 261.6c-1.4-0.6-3.7-1.1-5.5-1.1-2 0.1-4 1.1-2.9 3.2 1.2 2.3 7.5 1 8.4-2.1z"/><path class="x" d="m342.6 244.3l0.1 7.5c1.2-1 1.5-1.9 2.7-3.1 1.9-2 2.7-2 3.6-2.9-1.3-0.5-0.2 0.3-0.8-1.8-2.2-0.3-3.8-1.2-4.7 1.3-0.5-2 0.1-0.2-0.9-1z"/><path class="A" d="m157.8 252.8c0.4-2.5-0.2-3.7-0.9-5.9l-0.3 0.3c0 0.1-0.1 0.2-0.2 0.2l-0.8 0.7c-1.3 0.9-1.3 1.4-1.3 3.3-0.2 6.5 0 3.6 3.2 5.1z"/><path class="x" d="m157.5 261.6c-2.4-1.2-9.6-2-8.4 1.8 0.8 2.6 7.3 1.6 8.4-1.8z"/><path class="m" d="m182.6 260.8c-1.4 0.4-0.6 0.3-1.4 0-0.1 0-0.2-0.1-0.2-0.1l-1.1-0.7c-0.1-1.4-0.3-2.7 0.2-4 0.5-1.4 0.9-1 1.8-1.6-0.4-0.9-0.2-1.2-1.7-1.3-2.1-0.1-3.2 2.5-3.1 5 0.2 3.4 3.6 6.6 5.5 2.7z"/><path class="a" d="m165.4 242.8c3.5 0.9 5.7-1.2 5-4.9-1.5 0.2-2.6 0.8-3.1 0.8-1.5 0-1.2-1.4-3.1-0.2-1.3 2.1 0.7 3.2 1.2 4.3z"/><path class="j" d="m330.9 259.4c0.8-0.4 1-0.6 1.5-1.8 0.3-0.8 0.6-1.7 0.7-2.7 0.2-1.9 0.1-4.3-1-5.4-1.1 0.1-0.9 0.7-1.5 2-0.6 1.1-0.8 1.3-1 2.8-0.2 1.1-0.2 2.5 0.1 3.6 0.5 1.8 0.9 1.4 1.2 1.5z"/><path class="h" d="m304.6 272.4c-1.2 0.9-0.9 0.9-2.9 0.9 0.9 0.8-0.1 0.2 1.1 0.6l2 0.6c1.5 0.8 3.7 1.4 5.2-0.6 0.7-0.9 0.9-2.1 1-3.3 0.2-1.7-0.8-0.6 0.5-1.8-0.5-0.9-0.1-0.5-0.9-1.3-0.7-0.6-0.7-0.5-1-0.6-1.3 1.3 0.4 3-1.3 5.7-2 0.2-2.8 0.6-2.8-1.2-0.3 1.9 0.1 0.4-0.9 1z"/><path class="A" d="m136.1 262.6c0.4-0.1 0.4 0.2 1.3-0.8 1.2-1.4 2-3.4 2.3-5.5-1.3 0.7-0.3-1-1.2 1 0.2 0 0.6 0.8 0-0.2 0 0 0-0.2-0.1-0.2-1.1-0.9-2.1 0.1-2.8 0.8-1.1 1.2-1.4 2.1-1.3 4.3z"/><path class="B" d="m182.6 260.8c1.2-1.2 0.9-5.3-0.7-6.4-0.9 0.6-1.3 0.2-1.8 1.6-0.5 1.3-0.3 2.6-0.2 4l1.1 0.7c0 0 0.1 0.1 0.2 0.1 0.8 0.3 0 0.4 1.4 0z"/><path class="z" d="m267.2 245.4l-2.6-3.9c-1 0.3-0.5 0-1 0.3-0.9 0.4-0.5 0.1-0.7 0.5-0.1-2.2 0.1-0.1-0.9-0.9l-0.1 4.7 4.1-0.2c2.2-0.4-1.2 0.4 0.6-0.2z"/><path class="B" d="m231.9 253.3c1.4 0.1 2.1 0 3.2-0.7l-0.5-3.5-1.3-1-0.8 0.7c-0.8 0.8-1.1 1.5-1.1 3 0.2 2.2-0.2 0.5 0.5 1.5z"/></svg>